<svg width="53" height="53" viewBox="0 0 53 53" fill="none" xmlns="http://www.w3.org/2000/svg">
<rect width="52.138" height="52.138" rx="11" fill="#F9F12D"/>
<path d="M39.2072 11.6861H12.9307C11.8854 11.6861 10.8829 12.1004 10.1437 12.838C9.40452 13.5755 8.98926 14.5759 8.98926 15.6189V33.9721C8.98926 35.0151 9.40452 36.0155 10.1437 36.753C10.8829 37.4906 11.8854 37.9049 12.9307 37.9049H39.2072C40.2525 37.9049 41.255 37.4906 41.9942 36.753C42.7334 36.0155 43.1486 35.0151 43.1486 33.9721V15.6189C43.1486 14.5759 42.7334 13.5755 41.9942 12.838C41.255 12.1004 40.2525 11.6861 39.2072 11.6861ZM40.521 33.9721C40.521 34.3198 40.3826 34.6532 40.1362 34.8991C39.8898 35.1449 39.5556 35.283 39.2072 35.283H12.9307C12.5823 35.283 12.2481 35.1449 12.0017 34.8991C11.7553 34.6532 11.6169 34.3198 11.6169 33.9721V15.6189C11.6169 15.2712 11.7553 14.9378 12.0017 14.6919C12.2481 14.4461 12.5823 14.308 12.9307 14.308H39.2072C39.5556 14.308 39.8898 14.4461 40.1362 14.6919C40.3826 14.9378 40.521 15.2712 40.521 15.6189V33.9721ZM32.638 41.8377C32.638 42.1854 32.4996 42.5189 32.2532 42.7647C32.0068 43.0105 31.6727 43.1487 31.3242 43.1487H20.8137C20.4652 43.1487 20.131 43.0105 19.8846 42.7647C19.6382 42.5189 19.4998 42.1854 19.4998 41.8377C19.4998 41.49 19.6382 41.1566 19.8846 40.9107C20.131 40.6649 20.4652 40.5268 20.8137 40.5268H31.3242C31.6727 40.5268 32.0068 40.6649 32.2532 40.9107C32.4996 41.1566 32.638 41.49 32.638 41.8377Z" fill="black"/>
<path d="M22.1923 23.9341H15.3941C15.2302 23.9341 15.073 23.9992 14.9571 24.1151C14.8412 24.231 14.7761 24.3882 14.7761 24.5521V31.3502C14.7761 31.5141 14.8412 31.6713 14.9571 31.7872C15.073 31.9031 15.2302 31.9682 15.3941 31.9682H22.1923C22.3562 31.9682 22.5134 31.9031 22.6293 31.7872C22.7452 31.6713 22.8103 31.5141 22.8103 31.3502V24.5521C22.8103 24.3882 22.7452 24.231 22.6293 24.1151C22.5134 23.9992 22.3562 23.9341 22.1923 23.9341ZM21.5743 30.7322H16.0122V25.1701H21.5743V30.7322ZM28.3724 29.4962V30.7322C28.3724 31.06 28.2422 31.3744 28.0104 31.6062C27.7786 31.838 27.4642 31.9682 27.1364 31.9682H25.2824C25.1185 31.9682 24.9613 31.9031 24.8454 31.7872C24.7295 31.6713 24.6644 31.5141 24.6644 31.3502C24.6644 31.1863 24.7295 31.0291 24.8454 30.9132C24.9613 30.7973 25.1185 30.7322 25.2824 30.7322H27.1364V29.4962C27.1364 29.3323 27.2015 29.1751 27.3174 29.0592C27.4333 28.9433 27.5905 28.8782 27.7544 28.8782C27.9183 28.8782 28.0755 28.9433 28.1914 29.0592C28.3073 29.1751 28.3724 29.3323 28.3724 29.4962ZM28.3724 23.9341V26.4061C28.3724 26.57 28.3073 26.7272 28.1914 26.8431C28.0755 26.959 27.9183 27.0241 27.7544 27.0241C27.5905 27.0241 27.4333 26.959 27.3174 26.8431C27.2015 26.7272 27.1364 26.57 27.1364 26.4061V23.9341C27.1364 23.7701 27.2015 23.6129 27.3174 23.497C27.4333 23.3811 27.5905 23.316 27.7544 23.316C27.9183 23.316 28.0755 23.3811 28.1914 23.497C28.3073 23.6129 28.3724 23.7701 28.3724 23.9341ZM28.3724 19.6079V20.844C28.3724 21.0079 28.3073 21.1651 28.1914 21.281C28.0755 21.3969 27.9183 21.462 27.7544 21.462C27.5905 21.462 27.4333 21.3969 27.3174 21.281C27.2015 21.1651 27.1364 21.0079 27.1364 20.844V19.6079H25.9004C25.7365 19.6079 25.5793 19.5428 25.4634 19.4269C25.3475 19.311 25.2824 19.1538 25.2824 18.9899C25.2824 18.826 25.3475 18.6688 25.4634 18.5529C25.5793 18.437 25.7365 18.3719 25.9004 18.3719H27.1364C27.4642 18.3719 27.7786 18.5021 28.0104 18.7339C28.2422 18.9657 28.3724 19.2801 28.3724 19.6079ZM23.4283 18.9899C23.4283 19.1538 23.3632 19.311 23.2473 19.4269C23.1314 19.5428 22.9742 19.6079 22.8103 19.6079H20.3383C20.1743 19.6079 20.0172 19.5428 19.9013 19.4269C19.7854 19.311 19.7202 19.1538 19.7202 18.9899C19.7202 18.826 19.7854 18.6688 19.9013 18.5529C20.0172 18.437 20.1743 18.3719 20.3383 18.3719H22.8103C22.9742 18.3719 23.1314 18.437 23.2473 18.5529C23.3632 18.6688 23.4283 18.826 23.4283 18.9899ZM14.7761 21.462V19.6079C14.7761 19.2801 14.9063 18.9657 15.1381 18.7339C15.3699 18.5021 15.6843 18.3719 16.0122 18.3719H17.2482C17.4121 18.3719 17.5693 18.437 17.6852 18.5529C17.8011 18.6688 17.8662 18.826 17.8662 18.9899C17.8662 19.1538 17.8011 19.311 17.6852 19.4269C17.5693 19.5428 17.4121 19.6079 17.2482 19.6079H16.0122V21.462C16.0122 21.6259 15.947 21.7831 15.8311 21.899C15.7152 22.0149 15.558 22.08 15.3941 22.08C15.2302 22.08 15.073 22.0149 14.9571 21.899C14.8412 21.7831 14.7761 21.6259 14.7761 21.462Z" fill="black" stroke="black" stroke-width="1.5"/>
</svg>
